PathFileType	4	(X/Y/Z)	G:\GRF\jawan data\CompiledGRF\03. Mohit Kumar\0231~ac~Walking 07_markers.trc
DataRate	CameraRate	NumFrames	NumMarkers	Units	OrigDataRate	OrigDataStartFrame	OrigNumFrames
100.000000	100.000000	10	18	mm	100.000000	599	959
Frame#	Time	c7			r should			l should			sacrum			r asis			r bar 1			r knee 1			r bar 2			r mall			r heel			r met			l asis			l bar 1			l knee 1			l bar 2			l mall			l heel			l met			
		X1	Y1	Z1	X2	Y2	Z2	X3	Y3	Z3	X4	Y4	Z4	X5	Y5	Z5	X6	Y6	Z6	X7	Y7	Z7	X8	Y8	Z8	X9	Y9	Z9	X10	Y10	Z10	X11	Y11	Z11	X12	Y12	Z12	X13	Y13	Z13	X14	Y14	Z14	X15	Y15	Z15	X16	Y16	Z16	X17	Y17	Z17	X18	Y18	Z18	

600	5.99	717.6461791992188	1508.028930664063	284.0182189941406	783.6026000976563	1457.790649414063	441.1028442382813	751.9494018554688	1471.5703125	116.8530578613281	615.72802734375	1050.367065429688	276.1834411621094	811.2394409179688	1015.476440429688	380.1896667480469	783.1484985351563	601.3362426757813	445.8793334960938	798.3009643554688	517.7294311523438	390.063720703125	744.44384765625	192.9706573486328	405.875	747.5670776367188	69.78580474853516	340.5112609863281	689.5629272460938	35.68516159057617	294.9562683105469	897.3421630859375	35.7618408203125	335.6842346191406	777.9664306640625	1012.880554199219	134.6966552734375	772.9978637695313	594.3377075195313	50.18746185302734	808.8515625	502.0028381347656	92.15611267089844	575.2770385742188	349.2237854003906	70.38597869873047	446.0476684570313	241.0622253417969	148.7227172851563	388.3313293457031	266.8345947265625	211.3407440185547	493.4503479003906	104.4398803710938	165.6411437988281	
601	6	726.3702392578125	1508.84765625	284.3051452636719	793.2990112304688	1458.489624023438	441.2690734863281	760.716064453125	1472.129638671875	117.0755081176758	624.7073364257813	1051.37939453125	276.1508483886719	819.9234008789063	1016.021728515625	381.4366455078125	786.748779296875	601.3660278320313	445.9211730957031	801.9843139648438	517.856689453125	390.2010192871094	744.7041625976563	193.2115783691406	405.5802001953125	747.6240234375	69.82968139648438	340.375244140625	689.364013671875	35.94830703735352	294.7062683105469	897.3928833007813	35.56818771362305	335.89111328125	787.9619750976563	1014.573669433594	135.7706298828125	793.0823364257813	597.149169921875	49.665771484375	829.3111572265625	505.3273315429688	92.26122283935547	596.602783203125	350.9352111816406	69.61759185791016	468.9869689941406	240.3244934082031	146.9495544433594	409.9998474121094	263.91845703125	209.3970794677734	520.4193115234375	105.6768646240234	163.4816131591797	
602	6.01	736.34033203125	1509.390502929688	284.4703674316406	802.6192016601563	1459.221069335938	441.3221740722656	769.6453247070313	1472.610717773438	117.3097915649414	633.9157104492188	1052.185302734375	276.1688842773438	828.535888671875	1016.485900878906	382.6075744628906	789.8419799804688	601.538330078125	445.8208618164063	803.8509521484375	517.3232421875	390.2085571289063	744.8045043945313	193.5331726074219	405.3891906738281	747.65771484375	69.93952178955078	340.2883911132813	689.3935546875	36.12020492553711	294.4423828125	897.5284423828125	35.49846649169922	336.0941467285156	798.0476684570313	1016.172180175781	136.7530212402344	813.0530395507813	600.1802978515625	49.20761108398438	849.5311279296875	508.8512878417969	92.41838073730469	618.451171875	351.8355102539063	68.75447082519531	492.6128540039063	238.1932373046875	145.2275238037109	431.8694152832031	259.5886840820313	207.2079010009766	548.622802734375	106.07763671875	161.864990234375	
603	6.02	746.012939453125	1509.960205078125	284.5829772949219	812.097900390625	1459.956176757813	441.4020690917969	778.7413940429688	1473.082153320313	117.5173721313477	643.0159912109375	1052.799194335938	276.0849914550781	837.0653686523438	1016.793273925781	383.6202087402344	792.6329345703125	601.740478515625	445.8391723632813	806.4491577148438	517.2666625976563	390.4125671386719	745.1860961914063	193.7932434082031	405.3051452636719	747.7549438476563	70.05547332763672	340.2249450683594	689.7363891601563	36.235107421875	294.2015075683594	897.6314697265625	35.44567489624023	336.2972106933594	808.0541381835938	1017.6708984375	137.7421417236328	832.6992797851563	603.3414916992188	48.80316925048828	869.0711669921875	512.3538818359375	92.614990234375	640.703369140625	351.8771667480469	67.86954498291016	516.9730834960938	234.6801300048828	143.6392669677734	454.0010986328125	253.9761657714844	205.0747680664063	578.0675048828125	105.6376876831055	160.7555084228516	
604	6.03	754.8952026367188	1510.4345703125	284.6338195800781	821.6978149414063	1460.668579101563	441.4609985351563	787.983154296875	1473.645385742188	117.5007400512695	652.271728515625	1053.147583007813	275.8680114746094	845.5925903320313	1016.902709960938	384.4959106445313	795.4037475585938	601.9553833007813	445.9878234863281	809.3397827148438	517.4191284179688	390.768310546875	745.6207885742188	194.0651550292969	405.2564086914063	747.9667358398438	70.21728515625	340.198486328125	689.8936157226563	36.4613151550293	293.9715270996094	897.64990234375	35.36089706420898	336.5145263671875	817.9296875	1018.874755859375	138.6456146240234	851.9442138671875	606.6392822265625	48.49238586425781	888.1596069335938	515.8333129882813	92.93914031982422	663.86279296875	350.7265319824219	67.02907562255859	541.994140625	230.0560913085938	142.1068878173828	478.0963134765625	246.6640625	202.9442443847656	608.19775390625	104.2371292114258	159.6886444091797	
605	6.04	764.3231201171875	1510.73974609375	284.6176147460938	830.9962158203125	1461.24853515625	441.4462280273438	797.4006958007813	1474.239501953125	117.2046051025391	661.5265502929688	1053.4345703125	275.6000671386719	854.0335083007813	1016.85546875	385.2621765136719	798.2761840820313	602.1383056640625	446.1561889648438	811.332275390625	517.2274169921875	391.1062927246094	746.1382446289063	194.3299713134766	405.1969604492188	748.2225952148438	70.394287109375	340.1288452148438	689.9439697265625	36.73791885375977	293.6836547851563	897.6561889648438	35.21632766723633	336.6856384277344	827.7630615234375	1019.879577636719	139.4513092041016	870.5763549804688	609.8547973632813	48.25235748291016	907.1029663085938	519.3749389648438	93.26132965087891	687.1410522460938	348.5370483398438	66.10834503173828	567.654296875	224.3536071777344	140.6302795410156	503.9833679199219	237.6569366455078	200.9753112792969	639.2083129882813	102.2290115356445	158.6629638671875	
606	6.05	773.3309936523438	1511.007568359375	284.7181091308594	840.2865600585938	1461.648681640625	441.4152221679688	806.667724609375	1474.389770507813	117.2202606201172	670.7534790039063	1053.510009765625	275.2910461425781	862.2822265625	1016.567565917969	385.9974060058594	801.2015991210938	602.2771606445313	446.2973022460938	813.9772338867188	517.3253173828125	391.4025268554688	746.5700073242188	194.5937347412109	405.0931701660156	748.3255615234375	70.47970581054688	339.9906005859375	689.9226684570313	37.03865432739258	293.4334411621094	897.710205078125	35.10630035400391	336.8330688476563	837.6163940429688	1020.683776855469	140.1748352050781	888.682373046875	613.0524291992188	47.97996139526367	925.3449096679688	522.7077026367188	93.5159912109375	710.3358764648438	345.3312683105469	65.36153411865234	594.0436401367188	217.730712890625	139.4262847900391	529.3228759765625	228.1382904052734	199.5363616943359	670.7470703125	99.68560791015625	157.7974700927734	
607	6.06	782.4421997070313	1511.052856445313	284.5735473632813	849.6232299804688	1461.954956054688	441.3385314941406	815.5209350585938	1474.299682617188	117.2652359008789	679.7876586914063	1053.466918945313	274.9400329589844	870.4469604492188	1016.087646484375	386.7468566894531	804.0991821289063	602.3308715820313	446.3516845703125	815.1668090820313	516.6495971679688	391.5272521972656	746.9189453125	194.8790893554688	404.9181518554688	748.3807373046875	70.60502624511719	339.7581481933594	690.25634765625	37.15729522705078	293.1556396484375	897.9274291992188	35.10013961791992	336.9536743164063	847.3524780273438	1021.286743164063	140.7956237792969	906.24853515625	615.980224609375	47.73381042480469	943.1425170898438	525.9828491210938	93.78730010986328	733.6284790039063	341.2838134765625	64.69120788574219	620.6548461914063	210.6227264404297	138.6337585449219	554.1029052734375	218.1160888671875	198.4396209716797	702.7847900390625	96.63447570800781	156.9506225585938	
608	6.07	792.1405029296875	1510.98486328125	284.5021057128906	858.8995971679688	1462.060791015625	441.2228698730469	824.2037963867188	1473.923828125	117.332763671875	689.4800415039063	1053.0068359375	274.5789184570313	878.7284545898438	1015.466003417969	387.3886413574219	807.2088623046875	602.346923828125	446.3141479492188	817.5794677734375	516.4061279296875	391.6242065429688	747.2195434570313	195.1297607421875	404.6494445800781	748.5486450195313	70.76841735839844	339.5086669921875	690.4020385742188	37.39498519897461	292.8415222167969	897.9719848632813	35.04905319213867	337.0996704101563	856.9690551757813	1021.703369140625	141.3094177246094	923.2368774414063	618.6470947265625	47.58950424194336	960.4285888671875	529.1517333984375	94.09680938720703	757.0372924804688	336.6163940429688	64.15878295898438	647.7904663085938	202.8585052490234	138.0029449462891	579.9818115234375	207.1523742675781	197.7761077880859	735.7113037109375	93.34641265869141	155.9069976806641	
609	6.08	801.2046508789063	1510.806884765625	284.4085083007813	868.2318725585938	1462.06103515625	441.107177734375	833.5386352539063	1473.36572265625	117.3775100708008	699.0225830078125	1052.447021484375	274.1780090332031	886.9228515625	1014.723083496094	387.9544372558594	810.7772827148438	602.283935546875	446.3704223632813	820.9008178710938	516.626953125	391.6678771972656	747.4871826171875	195.38525390625	404.3582153320313	748.7227783203125	70.96598052978516	339.1559448242188	690.2764282226563	37.78639984130859	292.5325012207031	897.977294921875	34.99093627929688	337.1875915527344	866.5796508789063	1021.934753417969	141.7562713623047	939.517822265625	621.124755859375	47.49158096313477	977.0591430664063	532.0535888671875	94.42460632324219	780.773193359375	331.2939147949219	63.68035125732422	675.7855224609375	194.5003204345703	137.4807281494141	607.2929077148438	195.2728271484375	197.3887481689453	768.8970336914063	89.69637298583984	154.6576690673828	
